<?xml version="1.0" encoding="utf-8"?>
<!-- Generator: Adobe Illustrator 25.0.1, SVG Export Plug-In . SVG Version: 6.00 Build 0)  -->
<svg version="1.1" id="Layer_1" xmlns="http://www.w3.org/2000/svg" xmlns:xlink="http://www.w3.org/1999/xlink" x="0px" y="0px"
	 viewBox="0 0 340.2 104.8" style="enable-background:new 0 0 340.2 104.8;" xml:space="preserve">
<style type="text/css">
	.st0{fill:url(#SVGID_1_);}
	.st1{fill:url(#SVGID_2_);}
	.st2{fill:url(#SVGID_3_);}
	.st3{fill:url(#SVGID_4_);}
	.st4{fill:url(#SVGID_5_);}
	.st5{fill:url(#SVGID_6_);}
	.st6{fill:url(#SVGID_7_);}
	.st7{fill:url(#SVGID_8_);}
	.st8{fill:url(#SVGID_9_);}
	.st9{fill:url(#SVGID_10_);}
	.st10{fill:url(#SVGID_11_);}
	.st11{fill:#1A1C20;}
</style>
<linearGradient id="SVGID_1_" gradientUnits="userSpaceOnUse" x1="92.335" y1="88.41" x2="92.335" y2="59.47">
	<stop  offset="0" style="stop-color:#FFFFFF"/>
	<stop  offset="1" style="stop-color:#9D9D9C"/>
</linearGradient>
<path class="st0" d="M3.9,64.1c0-11.7,7.5-18.8,20.6-18.8c10.1,0,16.6,3.9,19.6,11.7c0.7,1.9,0.1,3-1.8,3.6l-7.2,2.5
	c-2.1,0.6-2.9,0.3-3.6-1.8c-1.1-2.9-3.5-4.4-7-4.4c-5.2,0-7.4,2.2-7.4,7v12.2c0,4.8,2.2,7,7.4,7c3.5,0,5.9-1.5,7-4.4
	c0.8-2.1,1.5-2.5,3.6-1.8l7.2,2.6c1.9,0.6,2.5,1.7,1.8,3.6C41.1,91.1,34.6,95,24.5,95C11.4,95,3.9,88,3.9,76.2L3.9,64.1z M54,49.5
	c3.5-2.8,8.4-4.1,14.6-4.1c9.8,0,15.6,3,18.7,9.4c0.9,1.7,0.3,3-1.6,3.8L79,61.4c-1.8,0.8-2.6,0.5-3.6-1.4c-1.1-2.3-3.4-3.5-6.8-3.5
	c-4.2,0-6.4,1.1-6.4,3.5c0,2.6,2.8,3.3,8.8,4.1c3.3,0.2,6.5,1,9.6,2.3c1.6,0.6,3,1.5,4.3,2.7c2.2,2.1,4,5.8,4,10.7
	c0.1,4.5-2,8.7-5.8,11.2c-3.9,2.8-8.9,4.1-15,4.1c-10.5,0.1-17-3.4-19.5-10.3c-0.7-2.1-0.1-2.9,1.8-3.7l6.3-2.3c1.9-0.7,3-0.4,4,1.5
	c1.2,2.3,3.8,3.6,7.6,3.6c4.8,0,7.2-1.3,7.2-3.8s-2.6-3.2-7.8-4c-1.9-0.2-3.7-0.5-5.6-0.9c-1-0.2-1.9-0.4-2.9-0.7
	c-1.8-0.6-3.6-1.4-5.2-2.4c-1.6-1.1-2.9-2.7-3.8-4.4c-1-2.2-1.5-4.6-1.5-7C48.5,56.1,50.5,52,54,49.5z M131.5,66.6
	c2.1,0,2.8,0.7,2.8,2.9v8.8c0.1,4.6-1.9,9-5.4,11.9c-3.7,3.2-8.7,4.7-15.1,4.7c-13.1,0-20.6-7-20.6-18.8v-12
	c0-11.7,7.5-18.8,20.6-18.8c10.1,0,16.6,3.9,19.6,11.7c0.7,1.9,0.1,3-1.8,3.6l-7.2,2.5c-2.1,0.7-2.9,0.3-3.6-1.8
	c-1.1-2.9-3.5-4.4-7-4.4c-5.2,0-7.4,2.2-7.4,7v12.1c0,4.8,2.2,7,7.4,7c4.5,0,7.2-1.7,7.2-4.6v-1.4h-6.4c-2.1,0-2.8-0.7-2.8-2.8v-5
	c0-2.1,0.7-2.9,2.8-2.9L131.5,66.6z M139.6,64.1c0-11.7,7.5-18.8,20.6-18.8s20.6,7,20.6,18.8v12c0,11.7-7.5,18.8-20.6,18.8
	s-20.6-7-20.6-18.8V64.1z M167.5,63.5c0-4.2-2.7-6.4-7.3-6.4s-7.4,2.2-7.4,6.4v13.3c0,4.2,2.6,6.4,7.4,6.4s7.3-2.2,7.3-6.4V63.5z"/>
<linearGradient id="SVGID_2_" gradientUnits="userSpaceOnUse" x1="196.68" y1="37.7994" x2="196.68" y2="19.0703" gradientTransform="matrix(1 0 0 -1 0 106)">
	<stop  offset="0" style="stop-color:#FFFFFF"/>
	<stop  offset="1" style="stop-color:#9D9D9C"/>
</linearGradient>
<path class="st1" d="M191.3,67.2c-1.4,0-1.9,0.5-1.9,1.9V73c0,1.5,0.5,1.9,1.9,1.9H202c1.4,0,1.9-0.5,1.9-1.9v-3.9
	c0-1.5-0.5-1.9-1.9-1.9L191.3,67.2z"/>
<linearGradient id="SVGID_3_" gradientUnits="userSpaceOnUse" x1="309.4416" y1="93.5311" x2="216.2616" y2="22.9411" gradientTransform="matrix(1 0 0 -1 0 106)">
	<stop  offset="0" style="stop-color:#00A1DD"/>
	<stop  offset="0.22" style="stop-color:#0056A4"/>
	<stop  offset="0.42" style="stop-color:#0056A4"/>
	<stop  offset="1" style="stop-color:#42A1DA"/>
</linearGradient>
<path class="st2" d="M235.3,46.4c10.2,0,16.7,5.9,16.7,16.1c0,6.5-2.4,11.1-7.2,13.8c0.7,0.9,1.3,1.8,1.8,2.9l6,11.4
	c1,1.8,0.4,3.3-1.8,3.3h-7.2c-3.5,0-5.1-0.8-6.2-3.2l-4.3-9.2c-1.3-2.4-2.4-3.4-5-3.4h-1.5v13c0,2.1-0.7,2.8-2.8,2.8h-7.6
	c-2.1,0-2.9-0.7-2.9-2.8V49.2c0-2.1,0.7-2.8,2.9-2.8H235.3z M233.8,58.1h-7.2V67h7.2c2.3,0.2,4.3-1.5,4.4-3.8c0-0.2,0-0.5,0-0.7
	C238.2,59.8,236.7,58.1,233.8,58.1z"/>
<linearGradient id="SVGID_4_" gradientUnits="userSpaceOnUse" x1="325.698" y1="73.5626" x2="232.518" y2="2.9726" gradientTransform="matrix(1 0 0 -1 0 106)">
	<stop  offset="0" style="stop-color:#00A1DD"/>
	<stop  offset="0.22" style="stop-color:#0056A4"/>
	<stop  offset="0.42" style="stop-color:#0056A4"/>
	<stop  offset="1" style="stop-color:#42A1DA"/>
</linearGradient>
<path class="st3" d="M289.7,46.4c2.1,0,2.9,0.7,2.9,2.8v6c0,2.1-0.7,2.9-2.9,2.9H272v6h14.1c2.1,0,2.9,0.7,2.9,2.8v6
	c0,2.1-0.7,2.9-2.9,2.9H272v6.4h18.3c2.1,0,2.8,0.7,2.8,2.8v6.1c0,2.1-0.7,2.8-2.8,2.8h-28.7c-2.1,0-2.9-0.7-2.9-2.8V49.2
	c0-2.1,0.7-2.8,2.9-2.8H289.7z"/>
<linearGradient id="SVGID_5_" gradientUnits="userSpaceOnUse" x1="337.3492" y1="59.671" x2="244.1692" y2="-10.909" gradientTransform="matrix(1 0 0 -1 0 106)">
	<stop  offset="0" style="stop-color:#00A1DD"/>
	<stop  offset="0.22" style="stop-color:#0056A4"/>
	<stop  offset="0.42" style="stop-color:#0056A4"/>
	<stop  offset="1" style="stop-color:#42A1DA"/>
</linearGradient>
<path class="st4" d="M320.6,46.4c10.5,0,17.3,6.2,17.3,16.8s-6.6,16.5-17.1,16.5h-8.2v11.4c0,2.1-0.7,2.8-2.8,2.8h-7.6
	c-2.1,0-2.9-0.7-2.9-2.8V49.2c0-2.1,0.7-2.8,2.9-2.8H320.6z M319.1,68c3.1,0,5-1.9,5-4.9c0.2-2.6-1.7-4.8-4.3-5c-0.2,0-0.5,0-0.7,0
	h-6.6V68H319.1z"/>
<linearGradient id="SVGID_6_" gradientUnits="userSpaceOnUse" x1="228.9672" y1="73.6029" x2="232.0672" y2="55.2529" gradientTransform="matrix(1 0 0 -1 0 106)">
	<stop  offset="0" style="stop-color:#00A1DD"/>
	<stop  offset="0.22" style="stop-color:#0056A4"/>
	<stop  offset="0.42" style="stop-color:#0056A4"/>
	<stop  offset="1" style="stop-color:#42A1DA"/>
</linearGradient>
<path class="st5" d="M234.4,47.9c10.2,0,16.7,5.9,16.7,16.1c0.1,2.8-0.5,5.6-1.8,8.2c1.9-2.9,2.8-6.3,2.7-9.7
	c0-10.2-6.4-16.2-16.7-16.2h-19.1c-1.8,0-2.6,0.5-2.8,1.9c0.6-0.3,1.2-0.4,1.9-0.4H234.4z"/>
<linearGradient id="SVGID_7_" gradientUnits="userSpaceOnUse" x1="282.4067" y1="58.0204" x2="278.2667" y2="26.3904" gradientTransform="matrix(1 0 0 -1 0 106)">
	<stop  offset="0" style="stop-color:#00A1DD"/>
	<stop  offset="0.22" style="stop-color:#0056A4"/>
	<stop  offset="0.42" style="stop-color:#0056A4"/>
	<stop  offset="1" style="stop-color:#42A1DA"/>
</linearGradient>
<path class="st6" d="M271.1,65.6h14.1c2.1,0,2.9,0.7,2.9,2.8v6c0,0.3,0,0.7-0.1,1c0.7-0.4,1-1.2,1-2.5v-6c0-2.1-0.7-2.8-2.9-2.8H272
	v-6l-0.9,0.8L271.1,65.6z"/>
<linearGradient id="SVGID_8_" gradientUnits="userSpaceOnUse" x1="274.5692" y1="68.6499" x2="276.2692" y2="52.1399" gradientTransform="matrix(1 0 0 -1 0 106)">
	<stop  offset="0" style="stop-color:#00A1DD"/>
	<stop  offset="0.22" style="stop-color:#0056A4"/>
	<stop  offset="0.42" style="stop-color:#0056A4"/>
	<stop  offset="1" style="stop-color:#42A1DA"/>
</linearGradient>
<path class="st7" d="M288.8,47.9c2.1,0,2.9,0.7,2.9,2.8v6c0,0.3,0,0.7-0.1,1c0.7-0.4,1-1.2,1-2.5v-6c0-2.1-0.7-2.8-2.9-2.8h-28.1
	c-1.8,0-2.6,0.5-2.8,1.9c0.6-0.3,1.2-0.4,1.9-0.4L288.8,47.9z"/>
<linearGradient id="SVGID_9_" gradientUnits="userSpaceOnUse" x1="276.7755" y1="28.8427" x2="290.3255" y2="12.2827" gradientTransform="matrix(1 0 0 -1 0 106)">
	<stop  offset="0" style="stop-color:#00A1DD"/>
	<stop  offset="0.22" style="stop-color:#0056A4"/>
	<stop  offset="0.42" style="stop-color:#0056A4"/>
	<stop  offset="1" style="stop-color:#42A1DA"/>
</linearGradient>
<path class="st8" d="M290.3,82.2H272v-6.4l-0.9,0.9v7h18.3c2.1,0,2.8,0.7,2.8,2.8v6.1c0,0.3,0,0.6-0.1,0.9c0.7-0.4,1-1.2,1-2.5V85
	C293.1,82.9,292.4,82.2,290.3,82.2z"/>
<linearGradient id="SVGID_10_" gradientUnits="userSpaceOnUse" x1="308.9848" y1="80.1582" x2="319.9948" y2="47.9682" gradientTransform="matrix(1 0 0 -1 0 106)">
	<stop  offset="0" style="stop-color:#00A1DD"/>
	<stop  offset="0.22" style="stop-color:#0056A4"/>
	<stop  offset="0.42" style="stop-color:#0056A4"/>
	<stop  offset="1" style="stop-color:#42A1DA"/>
</linearGradient>
<path class="st9" d="M319.7,47.9c10.5,0,17.3,6.2,17.3,16.7c0.1,2.9-0.6,5.8-1.9,8.5c1.9-3,2.9-6.5,2.8-10
	c0-10.5-6.8-16.8-17.3-16.8h-18.5c-1.8,0-2.6,0.5-2.8,1.9c0.6-0.3,1.2-0.4,1.9-0.4L319.7,47.9z"/>
<linearGradient id="SVGID_11_" gradientUnits="userSpaceOnUse" x1="148.965" y1="54.45" x2="148.965" y2="100.5701" gradientTransform="matrix(1 0 0 -1 0 106)">
	<stop  offset="0" style="stop-color:#00A1DD"/>
	<stop  offset="0.22" style="stop-color:#0056A4"/>
	<stop  offset="0.42" style="stop-color:#0056A4"/>
	<stop  offset="1" style="stop-color:#42A1DA"/>
</linearGradient>
<path class="st10" d="M171.9,6.7c-0.2-1.3-0.9-2.5-2-3.2c-0.8-0.5-1.7-0.8-2.7-0.8h-36.2c-2.7,0-5,2.2-5,4.9v18.6l0.3,8
	c0,2.3,1.7,4.3,4,4.7c0.2,0,0.4,0,0.6,0h5.9l-0.9,8.1c-0.1,0.9,0.6,1.7,1.5,1.8c0.5,0.1,0.9-0.1,1.3-0.4l10.5-9.5h18
	c2.7,0,4.9-2.2,4.9-4.9V9.5c0-0.9-0.1-1.9-0.2-2.8H171.9z"/>
<polygon class="st11" points="165.1,8.8 151.2,12.8 154.3,15.9 144,26.1 137.3,19.1 133,23.3 143.9,34.5 158.4,20 161.5,23.1 "/>
</svg>
